<?xml version="1.0" encoding="UTF-8" standalone="no"?>
<!DOCTYPE svg PUBLIC "-//W3C//DTD SVG 1.1//EN"
 "http://www.w3.org/Graphics/SVG/1.1/DTD/svg11.dtd">
<!-- Generated by graphviz version 2.38.0 (20140413.2041)
 -->
<!-- Title: controllers_diagram Pages: 1 -->
<svg width="320pt" height="244pt"
 viewBox="0.00 0.00 319.50 243.50" xmlns="http://www.w3.org/2000/svg" xmlns:xlink="http://www.w3.org/1999/xlink">
<g id="graph0" class="graph" transform="scale(1 1) rotate(0) translate(116 197.5)">
<title>controllers_diagram</title>
<polygon fill="none" stroke="none" points="-116,46 -116,-197.5 203.5,-197.5 203.5,46 -116,46"/>
<!-- _diagram_info -->
<g id="node1" class="node"><title>_diagram_info</title>
<text text-anchor="start" x="-104" y="-21.6" font-family="Times,serif" font-size="13.00">Controllers diagram</text>
<text text-anchor="start" x="-104" y="-7.6" font-family="Times,serif" font-size="13.00">Date: Oct 08 2016 &#45; 16:41</text>
<text text-anchor="start" x="-104" y="6.4" font-family="Times,serif" font-size="13.00">Migration version: 20160920025014</text>
<text text-anchor="start" x="-104" y="20.4" font-family="Times,serif" font-size="13.00">Generated by RailRoady 1.5.2</text>
<text text-anchor="start" x="-104" y="34.4" font-family="Times,serif" font-size="13.00">http://railroady.prestonlee.com</text>
</g>
<!-- StaticPageController -->
<g id="node2" class="node"><title>StaticPageController</title>
<path fill="none" stroke="black" d="M82.5,-70.5C82.5,-70.5 187.5,-70.5 187.5,-70.5 193.5,-70.5 199.5,-76.5 199.5,-82.5 199.5,-82.5 199.5,-151.5 199.5,-151.5 199.5,-157.5 193.5,-163.5 187.5,-163.5 187.5,-163.5 82.5,-163.5 82.5,-163.5 76.5,-163.5 70.5,-157.5 70.5,-151.5 70.5,-151.5 70.5,-82.5 70.5,-82.5 70.5,-76.5 76.5,-70.5 82.5,-70.5"/>
<text text-anchor="middle" x="135" y="-148.3" font-family="Times,serif" font-size="14.00">StaticPageController</text>
<polyline fill="none" stroke="black" points="70.5,-140.5 199.5,-140.5 "/>
<text text-anchor="start" x="78.5" y="-125.3" font-family="Times,serif" font-size="14.00">home</text>
<polyline fill="none" stroke="black" points="70.5,-117.5 199.5,-117.5 "/>
<polyline fill="none" stroke="black" points="70.5,-93.5 199.5,-93.5 "/>
<text text-anchor="start" x="78.5" y="-78.3" font-family="Times,serif" font-size="14.00">_layout</text>
</g>
<!-- ApplicationController -->
<g id="node3" class="node"><title>ApplicationController</title>
<path fill="none" stroke="black" d="M-86,-99C-86,-99 26,-99 26,-99 32,-99 38,-105 38,-111 38,-111 38,-181 38,-181 38,-187 32,-193 26,-193 26,-193 -86,-193 -86,-193 -92,-193 -98,-187 -98,-181 -98,-181 -98,-111 -98,-111 -98,-105 -92,-99 -86,-99"/>
<text text-anchor="middle" x="-30" y="-177.8" font-family="Times,serif" font-size="14.00">ApplicationController</text>
<polyline fill="none" stroke="black" points="-98,-170 38,-170 "/>
<polyline fill="none" stroke="black" points="-98,-146 38,-146 "/>
<polyline fill="none" stroke="black" points="-98,-122 38,-122 "/>
<text text-anchor="start" x="-90" y="-106.8" font-family="Times,serif" font-size="14.00">_layout</text>
</g>
</g>
</svg>
