<?xml version="1.0" encoding="UTF-8" standalone="no"?>
<!DOCTYPE svg PUBLIC "-//W3C//DTD SVG 1.1//EN"
 "http://www.w3.org/Graphics/SVG/1.1/DTD/svg11.dtd">
<!-- Generated by graphviz version 2.38.0 (20140413.2041)
 -->
<!-- Title: models_diagram Pages: 1 -->
<svg width="455pt" height="158pt"
 viewBox="0.00 0.00 454.50 158.00" xmlns="http://www.w3.org/2000/svg" xmlns:xlink="http://www.w3.org/1999/xlink">
<g id="graph0" class="graph" transform="scale(1 1) rotate(0) translate(4 154)">
<title>models_diagram</title>
<polygon fill="none" stroke="none" points="-4,4 -4,-154 450.5,-154 450.5,4 -4,4"/>
<!-- _diagram_info -->
<g id="node1" class="node"><title>_diagram_info</title>
<text text-anchor="start" x="8" y="-135.6" font-family="Times,serif" font-size="13.00">Models diagram</text>
<text text-anchor="start" x="8" y="-121.6" font-family="Times,serif" font-size="13.00">Date: Oct 08 2016 &#45; 16:41</text>
<text text-anchor="start" x="8" y="-107.6" font-family="Times,serif" font-size="13.00">Migration version: 20160920025014</text>
<text text-anchor="start" x="8" y="-93.6" font-family="Times,serif" font-size="13.00">Generated by RailRoady 1.5.2</text>
<text text-anchor="start" x="8" y="-79.6" font-family="Times,serif" font-size="13.00">http://railroady.prestonlee.com</text>
</g>
<!-- User -->
<g id="node2" class="node"><title>User</title>
<ellipse fill="none" stroke="black" cx="259" cy="-111" rx="27.0966" ry="18"/>
<text text-anchor="middle" x="259" y="-107.3" font-family="Times,serif" font-size="14.00">User</text>
</g>
<!-- Role -->
<g id="node5" class="node"><title>Role</title>
<ellipse fill="none" stroke="black" cx="259" cy="-18" rx="27.0966" ry="18"/>
<text text-anchor="middle" x="259" y="-14.3" font-family="Times,serif" font-size="14.00">Role</text>
</g>
<!-- User&#45;&gt;Role -->
<g id="edge1" class="edge"><title>User&#45;&gt;Role</title>
<path fill="none" stroke="#dbe986" d="M259,-82.5485C259,-71.0829 259,-57.7923 259,-46.3387"/>
<polygon fill="#dbe986" stroke="#dbe986" points="259,-82.8836 254.5,-92.8836 259,-87.8836 259,-92.8836 259,-92.8836 259,-92.8836 259,-87.8836 263.5,-92.8836 259,-82.8836 259,-82.8836"/>
<polygon fill="#dbe986" stroke="#dbe986" points="259,-46.0397 263.5,-36.0396 259,-41.0397 259,-36.0397 259,-36.0397 259,-36.0397 259,-41.0397 254.5,-36.0397 259,-46.0397 259,-46.0397"/>
</g>
<!-- Model -->
<g id="node3" class="node"><title>Model</title>
<ellipse fill="none" stroke="black" cx="339" cy="-111" rx="34.394" ry="18"/>
<text text-anchor="middle" x="339" y="-107.3" font-family="Times,serif" font-size="14.00">Model</text>
</g>
<!-- Ability -->
<g id="node4" class="node"><title>Ability</title>
<polygon fill="none" stroke="black" points="446.5,-129 391.5,-129 391.5,-93 446.5,-93 446.5,-129"/>
<text text-anchor="middle" x="419" y="-107.3" font-family="Times,serif" font-size="14.00">Ability</text>
</g>
</g>
</svg>
