<?xml version="1.0" encoding="UTF-8" standalone="no"?>
<!DOCTYPE svg PUBLIC "-//W3C//DTD SVG 1.1//EN"
 "http://www.w3.org/Graphics/SVG/1.1/DTD/svg11.dtd">
<!-- Generated by graphviz version 2.38.0 (20140413.2041)
 -->
<!-- Title: models_diagram Pages: 1 -->
<svg width="732pt" height="393pt"
 viewBox="0.00 0.00 731.50 393.00" xmlns="http://www.w3.org/2000/svg" xmlns:xlink="http://www.w3.org/1999/xlink">
<g id="graph0" class="graph" transform="scale(1 1) rotate(0) translate(4 389)">
<title>models_diagram</title>
<polygon fill="none" stroke="none" points="-4,4 -4,-389 727.5,-389 727.5,4 -4,4"/>
<!-- _diagram_info -->
<g id="node1" class="node"><title>_diagram_info</title>
<text text-anchor="start" x="8" y="-296.1" font-family="Times,serif" font-size="13.00">Models diagram</text>
<text text-anchor="start" x="8" y="-282.1" font-family="Times,serif" font-size="13.00">Date: Oct 08 2016 &#45; 16:41</text>
<text text-anchor="start" x="8" y="-268.1" font-family="Times,serif" font-size="13.00">Migration version: 20160920025014</text>
<text text-anchor="start" x="8" y="-254.1" font-family="Times,serif" font-size="13.00">Generated by RailRoady 1.5.2</text>
<text text-anchor="start" x="8" y="-240.1" font-family="Times,serif" font-size="13.00">http://railroady.prestonlee.com</text>
</g>
<!-- User -->
<g id="node2" class="node"><title>User</title>
<path fill="none" stroke="black" d="M244,-158.5C244,-158.5 420,-158.5 420,-158.5 426,-158.5 432,-164.5 432,-170.5 432,-170.5 432,-372.5 432,-372.5 432,-378.5 426,-384.5 420,-384.5 420,-384.5 244,-384.5 244,-384.5 238,-384.5 232,-378.5 232,-372.5 232,-372.5 232,-170.5 232,-170.5 232,-164.5 238,-158.5 244,-158.5"/>
<text text-anchor="middle" x="332" y="-369.3" font-family="Times,serif" font-size="14.00">User</text>
<polyline fill="none" stroke="black" points="232,-361.5 432,-361.5 "/>
<text text-anchor="start" x="240" y="-346.3" font-family="Times,serif" font-size="14.00">id :INTEGER</text>
<text text-anchor="start" x="240" y="-331.3" font-family="Times,serif" font-size="14.00">email :varchar</text>
<text text-anchor="start" x="240" y="-316.3" font-family="Times,serif" font-size="14.00">encrypted_password :varchar</text>
<text text-anchor="start" x="240" y="-301.3" font-family="Times,serif" font-size="14.00">reset_password_token :varchar</text>
<text text-anchor="start" x="240" y="-286.3" font-family="Times,serif" font-size="14.00">reset_password_sent_at :datetime</text>
<text text-anchor="start" x="240" y="-271.3" font-family="Times,serif" font-size="14.00">remember_created_at :datetime</text>
<text text-anchor="start" x="240" y="-256.3" font-family="Times,serif" font-size="14.00">sign_in_count :integer</text>
<text text-anchor="start" x="240" y="-241.3" font-family="Times,serif" font-size="14.00">current_sign_in_at :datetime</text>
<text text-anchor="start" x="240" y="-226.3" font-family="Times,serif" font-size="14.00">last_sign_in_at :datetime</text>
<text text-anchor="start" x="240" y="-211.3" font-family="Times,serif" font-size="14.00">current_sign_in_ip :varchar</text>
<text text-anchor="start" x="240" y="-196.3" font-family="Times,serif" font-size="14.00">last_sign_in_ip :varchar</text>
<text text-anchor="start" x="240" y="-181.3" font-family="Times,serif" font-size="14.00">created_at :datetime</text>
<text text-anchor="start" x="240" y="-166.3" font-family="Times,serif" font-size="14.00">updated_at :datetime</text>
</g>
<!-- Role -->
<g id="node5" class="node"><title>Role</title>
<path fill="none" stroke="black" d="M274,-0.5C274,-0.5 390,-0.5 390,-0.5 396,-0.5 402,-6.5 402,-12.5 402,-12.5 402,-109.5 402,-109.5 402,-115.5 396,-121.5 390,-121.5 390,-121.5 274,-121.5 274,-121.5 268,-121.5 262,-115.5 262,-109.5 262,-109.5 262,-12.5 262,-12.5 262,-6.5 268,-0.5 274,-0.5"/>
<text text-anchor="middle" x="332" y="-106.3" font-family="Times,serif" font-size="14.00">Role</text>
<polyline fill="none" stroke="black" points="262,-98.5 402,-98.5 "/>
<text text-anchor="start" x="270" y="-83.3" font-family="Times,serif" font-size="14.00">id :INTEGER</text>
<text text-anchor="start" x="270" y="-68.3" font-family="Times,serif" font-size="14.00">name :varchar</text>
<text text-anchor="start" x="270" y="-53.3" font-family="Times,serif" font-size="14.00">resource_id :integer</text>
<text text-anchor="start" x="270" y="-38.3" font-family="Times,serif" font-size="14.00">resource_type :varchar</text>
<text text-anchor="start" x="270" y="-23.3" font-family="Times,serif" font-size="14.00">created_at :datetime</text>
<text text-anchor="start" x="270" y="-8.3" font-family="Times,serif" font-size="14.00">updated_at :datetime</text>
</g>
<!-- User&#45;&gt;Role -->
<g id="edge1" class="edge"><title>User&#45;&gt;Role</title>
<path fill="none" stroke="#03ea9f" d="M332,-148.301C332,-142.711 332,-137.192 332,-131.811"/>
<polygon fill="#03ea9f" stroke="#03ea9f" points="332,-148.316 327.5,-158.316 332,-153.316 332,-158.316 332,-158.316 332,-158.316 332,-153.316 336.5,-158.316 332,-148.316 332,-148.316"/>
<polygon fill="#03ea9f" stroke="#03ea9f" points="332,-131.651 336.5,-121.651 332,-126.651 332,-121.651 332,-121.651 332,-121.651 332,-126.651 327.5,-121.651 332,-131.651 332,-131.651"/>
</g>
<!-- Model -->
<g id="node3" class="node"><title>Model</title>
<path fill="none" stroke="black" d="M462,-158.5C462,-158.5 638,-158.5 638,-158.5 644,-158.5 650,-164.5 650,-170.5 650,-170.5 650,-372.5 650,-372.5 650,-378.5 644,-384.5 638,-384.5 638,-384.5 462,-384.5 462,-384.5 456,-384.5 450,-378.5 450,-372.5 450,-372.5 450,-170.5 450,-170.5 450,-164.5 456,-158.5 462,-158.5"/>
<text text-anchor="middle" x="550" y="-369.3" font-family="Times,serif" font-size="14.00">Model</text>
<polyline fill="none" stroke="black" points="450,-361.5 650,-361.5 "/>
<text text-anchor="start" x="458" y="-346.3" font-family="Times,serif" font-size="14.00">id :INTEGER</text>
<text text-anchor="start" x="458" y="-331.3" font-family="Times,serif" font-size="14.00">email :varchar</text>
<text text-anchor="start" x="458" y="-316.3" font-family="Times,serif" font-size="14.00">encrypted_password :varchar</text>
<text text-anchor="start" x="458" y="-301.3" font-family="Times,serif" font-size="14.00">reset_password_token :varchar</text>
<text text-anchor="start" x="458" y="-286.3" font-family="Times,serif" font-size="14.00">reset_password_sent_at :datetime</text>
<text text-anchor="start" x="458" y="-271.3" font-family="Times,serif" font-size="14.00">remember_created_at :datetime</text>
<text text-anchor="start" x="458" y="-256.3" font-family="Times,serif" font-size="14.00">sign_in_count :integer</text>
<text text-anchor="start" x="458" y="-241.3" font-family="Times,serif" font-size="14.00">current_sign_in_at :datetime</text>
<text text-anchor="start" x="458" y="-226.3" font-family="Times,serif" font-size="14.00">last_sign_in_at :datetime</text>
<text text-anchor="start" x="458" y="-211.3" font-family="Times,serif" font-size="14.00">current_sign_in_ip :varchar</text>
<text text-anchor="start" x="458" y="-196.3" font-family="Times,serif" font-size="14.00">last_sign_in_ip :varchar</text>
<text text-anchor="start" x="458" y="-181.3" font-family="Times,serif" font-size="14.00">created_at :datetime</text>
<text text-anchor="start" x="458" y="-166.3" font-family="Times,serif" font-size="14.00">updated_at :datetime</text>
</g>
<!-- Ability -->
<g id="node4" class="node"><title>Ability</title>
<polygon fill="none" stroke="black" points="668.5,-248.5 668.5,-294.5 723.5,-294.5 723.5,-248.5 668.5,-248.5"/>
<text text-anchor="middle" x="696" y="-279.3" font-family="Times,serif" font-size="14.00">Ability</text>
<polyline fill="none" stroke="black" points="668.5,-271.5 723.5,-271.5 "/>
<text text-anchor="middle" x="696" y="-256.3" font-family="Times,serif" font-size="14.00"> </text>
</g>
</g>
</svg>
